<svg id="앉는모든_것" data-name="앉는모든 것" xmlns="http://www.w3.org/2000/svg" viewBox="0 0 270 50"><defs><style>.cls-1{fill:#fff;opacity:0;}.cls-2{fill:#38393a;}.cls-3{fill:#20a899;}</style></defs><rect class="cls-1" width="270" height="50"/><path class="cls-2" d="M4.23,34.32a3.6,3.6,0,0,1,.27-1.4,3.39,3.39,0,0,1,.77-1.13,3.42,3.42,0,0,1,1.16-.73,3.94,3.94,0,0,1,1.48-.27,4,4,0,0,1,1.48.27,3.52,3.52,0,0,1,1.16.73,3.39,3.39,0,0,1,.77,1.13,3.67,3.67,0,0,1,0,2.81,3.35,3.35,0,0,1-.77,1.12,3.52,3.52,0,0,1-1.16.73,4.22,4.22,0,0,1-1.48.26,4.14,4.14,0,0,1-1.48-.26,3.42,3.42,0,0,1-1.16-.73,3.35,3.35,0,0,1-.77-1.12A3.62,3.62,0,0,1,4.23,34.32Zm6.22,10.13-.81-.91v.91H4.83V39.2H6.34v3.91h3.3v.19a4.87,4.87,0,0,0,1.8-1.14,3.85,3.85,0,0,0,1-1.79H9.94V39.06h6.18v1.31H13.83c0,.15-.07.29-.1.42a3.64,3.64,0,0,1-.11.39A5.22,5.22,0,0,0,15,42.4a8.28,8.28,0,0,0,1.75.78l-.74,1.2a8.64,8.64,0,0,1-1.63-.78A7.83,7.83,0,0,1,13,42.46a5.91,5.91,0,0,1-1.13,1.21A5.3,5.3,0,0,1,10.45,44.45ZM5.73,34.32a2.26,2.26,0,0,0,.58,1.55,2.09,2.09,0,0,0,1.6.63,2.1,2.1,0,0,0,1.6-.63,2.33,2.33,0,0,0,0-3.1,2.07,2.07,0,0,0-1.6-.64,2.06,2.06,0,0,0-1.6.64A2.26,2.26,0,0,0,5.73,34.32Zm8.72-3.53H16v2.84h1.95V35H16v3.27H14.45Z"/><path class="cls-2" d="M31.44,37.7H44.68v1.36H31.44Zm.75-1.84V30.93H33.7v3.61H44.08v1.32Zm11.89,7.25v1.34H32.19V40.26H33.7v2.85Z"/><path class="cls-2" d="M72.19,42.64V44H59V42.64h5.87v-3.5h1.51v3.5Zm-.75-11.57v7.3H59.71v-7.3ZM61.22,37h8.72v-4.6H61.22Z"/><path class="cls-2" d="M86.48,38H99.71v1.34H86.48ZM99,36.46H87.23V31.07H99v1.35H88.74v2.7H99Zm.08,6.65v1.34H87.23V40.4h1.51v2.71Z"/><path class="cls-2" d="M131.49,31.07H138v1a6.12,6.12,0,0,1-.49,2.47,6.66,6.66,0,0,1-1.35,2,7.83,7.83,0,0,1-2,1.47,9.15,9.15,0,0,1-2.51.83l-.72-1.22a8.44,8.44,0,0,0,2.22-.64,6.59,6.59,0,0,0,1.75-1.13A4.93,4.93,0,0,0,136,34.3a4.83,4.83,0,0,0,.48-1.87h-5Zm6.64,9a8.16,8.16,0,0,0,1.19,1.07,10.76,10.76,0,0,0,1.4.9,12.85,12.85,0,0,0,1.51.7,10.45,10.45,0,0,0,1.53.44l-.7,1.23a9.84,9.84,0,0,1-1.54-.5,14.14,14.14,0,0,1-1.52-.73q-.74-.44-1.41-.93a11.21,11.21,0,0,1-1.2-1A8.56,8.56,0,0,1,135,43.34a8.69,8.69,0,0,1-2.85,1.11l-.75-1.2a8.69,8.69,0,0,0,1.86-.57,7.41,7.41,0,0,0,1.66-1,7.56,7.56,0,0,0,1.34-1.37,6.57,6.57,0,0,0,.92-1.74l1.37.47c-.06.19-.13.37-.2.54S138.22,39.94,138.13,40.11Zm5.09-9.32V39.6h-1.51V35.44h-3.63V34.08h3.63V30.79Z"/><path class="cls-3" d="M218,2.34c-1.25,0-1.86,1.23-2,1.71l-7.56,20.73h4.08a2.75,2.75,0,0,0,2.43-1.94l.07-.2h0L219.46,9.4,223,19.87l-4,0-.87,2.73s-.67,2.06,1.1,2.06h6.27l3.31-4.91L222.54,2.34Zm-18.19,0a2.38,2.38,0,0,0-2.17,1.52l-.16.4h0l-3.83,10-4.32-12h-3.95A1.91,1.91,0,0,0,183.52,4l0,.24h0L180.2,24.74H184a2,2,0,0,0,2-1.87l0-.23h0l1.51-10.81,4.91,12.91h2.19l5.14-12.91,1.31,10.81h0l0,.19a2,2,0,0,0,2,1.91h3.8L203.67,2.31Zm43.4,17.58h-4.64V2.31h-3.71A1.76,1.76,0,0,0,233,4.17V24.74h12.15v-3A1.83,1.83,0,0,0,243.16,19.89Zm15,0h-4.65V2.31H249.8A1.79,1.79,0,0,0,248,4.23h0V24.74h12.15V21.65A1.81,1.81,0,0,0,258.16,19.89Z"/><path class="cls-2" d="M155.57,24.54c2.3,0,3.12-1.14,4-2.31l4.29-5.78,5.32,7.17a2.55,2.55,0,0,0,1.82.92h4.21l-8.68-11.69,7.67-10.32h-4.13a2.55,2.55,0,0,0-1.82.92L156.42,19.33V2.53H154a2.14,2.14,0,0,0-2.28,2V22.57a2.15,2.15,0,0,0,2.28,2Z"/><path class="cls-2" d="M71.8,4q-2.74-2.31-8-2.31-11.31,0-11.3,11.78,0,6,2.78,9t8.58,2.95q11.35,0,11.36-11.84,0-6.67-3.44-9.53m-8,17.47q-6.14,0-6.14-8,0-7.85,6.14-7.85t6.18,8q0,7.91-6.18,7.9"/><path class="cls-2" d="M139.34,6.06h5.72a2.12,2.12,0,0,0,2.1-2.1V2.15h-7.9q-5.84,0-8.46,3.29-2.28,2.9-2.28,8.52,0,11,10.61,11h8V23.09a2.13,2.13,0,0,0-2.1-2.11l-5.72,0c-1.91,0-3.25-.34-4-1q-1.58-1.43-1.58-5.63,0-4.62,1.55-6.59a4.85,4.85,0,0,1,4-1.67"/><path class="cls-2" d="M113.59,2.16a2.63,2.63,0,0,0-2.37,1.47l-8.71,21.28h3.58A2.08,2.08,0,0,0,108,23.45l1.52-4h9.88l1.55,4a2.09,2.09,0,0,0,2,1.4h3.52L117.1,2.15Zm-2.53,13.29,3.41-8.59,3.38,8.59Z"/><path class="cls-2" d="M12.53,2.15H4.71A2.55,2.55,0,0,0,2.17,4.69V24.87l10.48,0q10.61,0,10.61-10.92c0-4-.85-6.92-2.56-8.86s-4.49-3-8.18-3m4.14,17.57c-.74.83-2.14,1.24-4.2,1.24H6.94V6.11h5.53c2.21,0,3.71.59,4.52,1.77s1,2.93,1,5.67q0,4.62-1.36,6.17"/><path class="cls-2" d="M45.68,2.05H43V15.78c0,2.21-.42,3.67-1.24,4.51s-2,1.11-3.82,1.11q-3.19,0-4.29-1.62a7.51,7.51,0,0,1-.82-4.08V4.12A2.09,2.09,0,0,0,30.81,2H28.1V15.83q0,4.78,1.89,6.81c1.5,1.6,4.16,2.41,8,2.41s6.63-.84,8.09-2.51c1.13-1.3,1.7-3.59,1.7-6.76V4.14a2.1,2.1,0,0,0-2.09-2.09"/><path class="cls-2" d="M97.13,12.9a6.46,6.46,0,0,0,1.58-4.23,6.53,6.53,0,0,0-6.54-6.51H82.83a2.74,2.74,0,0,0-2.77,2.72v20H93.62a6.5,6.5,0,0,0,3.51-12M84.81,6.25h6.07a2.69,2.69,0,0,1,2.67,2.69,2.65,2.65,0,0,1-2.67,2.64H86.63a1.89,1.89,0,0,1-1.82-1.91Zm7.52,14.63H84.81V17.09a1.91,1.91,0,0,1,1.87-2l5.49,0h.16A2.76,2.76,0,0,1,95,18a2.8,2.8,0,0,1-2.67,2.89"/></svg>